# xmcd
#
# Track frame offsets: 
#        150
#        11557
#        30173
#        44896
#        59028
#        74962
#        101126
#        112457
#        129064
#        154156
#        174688
#        199785
#        221692
#        232327
#        253351
#
# Disc length: 3629 seconds
#
# Revision: 0
# Processed by: cddbd v1.5.1PL2 Copyright (c) Steve Scherf et al.
# Submitted via: ExactAudioCopy v0.95b3
#
DISCID=f40e2b0f
DTITLE=Rainer - The Rainer Collection CD1
DYEAR=2006
DGENRE=Blues
TTITLE0=Rudy With A Flashlight
TTITLE1=The Farm
TTITLE2=Losing Ground
TTITLE3=Junkpile
TTITLE4=The Good Book
TTITLE5=Within You Without You
TTITLE6=Something's Gotta Be Done
TTITLE7=The River Of Real Time
TTITLE8=Powderkeg
TTITLE9=One Wrong Turn
TTITLE10=Life Is Fine
TTITLE11=Inner Flame
TTITLE12=Rude World
TTITLE13=One Man Crusade
TTITLE14=Oasis
EXTD=
EXTT0=
EXTT1=
EXTT2=
EXTT3=
EXTT4=
EXTT5=
EXTT6=
EXTT7=
EXTT8=
EXTT9=
EXTT10=
EXTT11=
EXTT12=
EXTT13=
EXTT14=
PLAYORDER=
